<?xml version="1.0" encoding="UTF-8" standalone="no"?>
<svg width="32" height="32" viewBox="0 0 32 32" fill="none" xmlns="http://www.w3.org/2000/svg">
  <!-- Background circle -->
  <circle cx="16" cy="16" r="15" fill="#665500"/>
  
  <!-- Inner circle gradient -->
  <circle cx="16" cy="16" r="13" fill="url(#goldGradient)"/>
  
  <!-- Simplified MQPy text - just "MQ" for favicon -->
  <g transform="translate(5, 18) scale(0.07, 0.07)">
    <!-- M (corrected) -->
    <path d="M10 -120 L10 0 L30 0 L30 -80 L50 -20 L70 -80 L70 0 L90 0 L90 -120 L70 -120 L50 -60 L30 -120 L10 -120Z" fill="#332200"/>
    
    <!-- Q -->
    <path d="M115 -120 Q85 -120 85 -85 L85 -30 Q85 5 115 5 Q145 5 145 -30 L145 -85 Q145 -120 115 -120Z 
             M115 -100 Q125 -100 125 -85 L125 -30 Q125 -15 115 -15 Q105 -15 105 -30 L105 -85 Q105 -100 115 -100Z 
             M130 -5 L145 15 L130 25 L115 5 L130 -5Z" fill="#332200"/>
  </g>
  
  <!-- Definitions -->
  <defs>
    <linearGradient id="goldGradient" x1="0%" y1="0%" x2="100%" y2="100%">
      <stop offset="0%" stop-color="#FFDF00"/>
      <stop offset="100%" stop-color="#FFC400"/>
    </linearGradient>
  </defs>
</svg> 