<?xml version="1.0" encoding="UTF-8" standalone="no"?>
<svg width="512" height="512" viewBox="0 0 512 512" fill="none" xmlns="http://www.w3.org/2000/svg">
  <!-- Background circle -->
  <circle cx="256" cy="256" r="240" fill="#665500"/>
  
  <!-- Inner circle gradient -->
  <circle cx="256" cy="256" r="210" fill="url(#goldGradient)"/>
  
  <!-- Highlight effect -->
  <circle cx="220" cy="200" r="150" fill="url(#highlightGradient)" opacity="0.3"/>
  
  <!-- MQPy text -->
  <g transform="translate(85, 265)">
    <!-- M (corrected) -->
    <path d="M10 -120 L10 0 L30 0 L30 -80 L50 -20 L70 -80 L70 0 L90 0 L90 -120 L70 -120 L50 -60 L30 -120 L10 -120Z" fill="#332200"/>
    
    <!-- Q -->
    <path d="M115 -120 Q85 -120 85 -85 L85 -30 Q85 5 115 5 Q145 5 145 -30 L145 -85 Q145 -120 115 -120Z 
             M115 -100 Q125 -100 125 -85 L125 -30 Q125 -15 115 -15 Q105 -15 105 -30 L105 -85 Q105 -100 115 -100Z 
             M130 -5 L145 15 L130 25 L115 5 L130 -5Z" fill="#332200"/>
    
    <!-- P -->
    <path d="M170 -120 L220 -120 Q240 -120 240 -95 L240 -75 Q240 -50 220 -50 L190 -50 L190 0 L170 0 L170 -120Z 
             M190 -100 L190 -70 L215 -70 Q220 -70 220 -80 L220 -90 Q220 -100 215 -100 L190 -100Z" fill="#332200"/>
    
    <!-- y -->
    <path d="M260 -50 L270 -20 L295 -90 L315 -90 L280 0 L260 40 L240 40 L255 0 L230 -90 L250 -90 L260 -50Z" fill="#332200"/>
  </g>
  
  <!-- Definitions -->
  <defs>
    <linearGradient id="goldGradient" x1="0%" y1="0%" x2="100%" y2="100%">
      <stop offset="0%" stop-color="#FFDF00"/>
      <stop offset="100%" stop-color="#FFC400"/>
    </linearGradient>
    <radialGradient id="highlightGradient" cx="50%" cy="50%" r="50%" fx="25%" fy="25%">
      <stop offset="0%" stop-color="#FFEA00"/>
      <stop offset="100%" stop-color="#FFCC00" stop-opacity="0"/>
    </radialGradient>
  </defs>
</svg> 